# xmcd
#
# Track frame offsets: 
#        182
#        17052
#        35022
#        54915
#        63622
#        81717
#        93970
#        107222
#        124525
#        134100
#        151697
#        170177
#
# Disc length: 2636 seconds
#
# Revision: 40
# Processed by: cddbd v1.5.2PL0 Copyright (c) Steve Scherf et al.
# Submitted via: ExactAudioCopy v0.99pb5
#
DISCID=a70a4a0c
DTITLE=Enya - Shepherd Moons
DYEAR=1991
DGENRE=Celtic
TTITLE0=Shepherd Moons
TTITLE1=Caribbean Blue
TTITLE2=How Can I Keep From Singing?
TTITLE3=Ebudæ
TTITLE4=Angeles
TTITLE5=No Holly For Miss Quinn
TTITLE6=Book Of Days
TTITLE7=Evacuee
TTITLE8=Lothlórien
TTITLE9=Marble Halls
TTITLE10=Afer Ventus
TTITLE11=Smaointe ...
EXTD=YEAR: 1991
EXTT0=
EXTT1=
EXTT2=
EXTT3=
EXTT4=
EXTT5=
EXTT6=
EXTT7=
EXTT8=
EXTT9=
EXTT10=
EXTT11=
PLAYORDER=
